<svg width="31" height="31" viewBox="0 0 31 31" fill="none" xmlns="http://www.w3.org/2000/svg">
<path fill-rule="evenodd" clip-rule="evenodd" d="M15.049 0.0296608C14.4914 0.176133 14.0019 0.577097 13.7434 1.09906L13.5932 1.40231L13.5772 9.13144L13.5611 16.8606L11.6361 14.9473C9.8663 13.1882 9.68275 13.0235 9.35999 12.9042C8.93131 12.7457 8.36476 12.7343 7.94761 12.8757C7.53671 13.0151 6.94923 13.6025 6.80984 14.0134C6.66905 14.4285 6.67991 14.9965 6.83689 15.4256C6.95851 15.7579 7.16281 15.974 10.6735 19.4827C13.623 22.4303 14.4438 23.2182 14.6851 23.3325C15.1182 23.5379 15.8897 23.5379 16.3229 23.3325C16.5641 23.2182 17.385 22.4303 20.3344 19.4827C23.8892 15.9299 24.0482 15.7616 24.1763 15.4127C24.3509 14.9378 24.332 14.2713 24.1325 13.8637C23.958 13.5072 23.5685 13.1168 23.2149 12.9437C22.8006 12.741 22.1377 12.7219 21.6608 12.8988C21.3219 13.0246 21.1648 13.1652 19.3721 14.947L17.4473 16.8601L17.431 9.13125L17.4147 1.40231L17.2067 1.0187C16.8636 0.386046 16.337 0.0471283 15.6321 0.00552173C15.4115 -0.00751824 15.1491 0.00333829 15.049 0.0296608ZM1.46151 27.2048C0.916127 27.3377 0.414116 27.7478 0.156984 28.2707C-0.0477992 28.6871 -0.0530765 29.4694 0.146126 29.8798C0.353943 30.3079 0.60052 30.5661 1.01718 30.792L1.40085 31H15.504H29.6071L29.9169 30.8365C30.3764 30.5942 30.5651 30.4114 30.7939 29.9872C30.9821 29.6382 31 29.5603 31 29.0895C31 28.6183 30.9822 28.541 30.7931 28.1903C30.5697 27.7762 30.3147 27.5314 29.8819 27.3159L29.6071 27.179L15.6253 27.1697C7.9353 27.1646 1.56159 27.1804 1.46151 27.2048Z" fill="white"/>
</svg>
