<svg width="26" height="26" viewBox="0 0 26 26" fill="none" xmlns="http://www.w3.org/2000/svg">
<path fill-rule="evenodd" clip-rule="evenodd" d="M11.4233 0.0681537C8.54819 0.426013 5.85674 1.75305 3.80501 3.82447C0.728774 6.9302 -0.592326 11.3066 0.24819 15.6076C0.984924 19.3777 3.45524 22.7553 6.82518 24.6002C7.62707 25.0391 9.09927 25.6434 9.3669 25.6434C9.59078 25.6434 9.84774 25.3809 9.84774 25.1521C9.84774 25.1098 9.14816 23.2734 8.29316 21.0711C5.87148 14.8335 4.12072 10.0728 3.70768 8.60245L3.60253 8.2281L3.84094 8.124C4.44147 7.86179 6.27934 7.46727 6.90335 7.46666C7.23619 7.4663 7.23731 7.46681 7.34388 7.65831C7.40269 7.76394 7.74701 8.56461 8.10913 9.43762C9.49534 12.7797 10.1078 14.0178 11.0076 15.2972C11.6934 16.2723 12.5186 17.0014 13.2783 17.3033C13.5546 17.4131 13.6596 17.4244 14.3964 17.4235C14.8849 17.4229 15.3212 17.3958 15.4891 17.3557C15.9396 17.248 16.5621 17.037 16.8359 16.8991C17.7619 16.4327 18.5624 15.5801 18.913 14.6865C19.0411 14.3601 19.0645 14.2283 19.0681 13.8155L19.0722 13.3291L18.4946 11.9722C18.1769 11.2259 17.5051 9.66373 17.0019 8.50076C16.4986 7.33778 16.0953 6.37931 16.1056 6.37075C16.116 6.36225 16.767 6.19421 17.5524 5.99733L18.9803 5.63937L19.2512 6.28402C20.2105 8.56737 21.5689 11.4811 22.2254 12.6634C22.8023 13.7025 23.1229 14.098 23.6313 14.3982C24.2309 14.7522 25.408 14.9995 25.7122 14.8355C25.9038 14.7322 25.9597 14.4743 25.9919 13.5452C26.1185 9.89937 24.7554 6.41182 22.1926 3.82447C20.124 1.73605 17.4345 0.417513 14.5235 0.0646718C13.7998 -0.0230392 12.141 -0.0211959 11.4233 0.0681537ZM20.1688 15.6378C20.0828 15.7107 20.0124 15.792 20.0124 15.8184C20.0124 15.8449 19.9336 16.0338 19.8374 16.2381C19.2859 17.4089 18.3393 18.3993 17.388 18.8006C16.4536 19.195 15.4905 19.3474 13.7123 19.3827L12.3166 19.4104L12.1749 19.5532C12.0898 19.6389 12.0331 19.7512 12.0331 19.8342C12.0331 20.0097 14.5056 25.6654 14.6667 25.8583C14.8149 26.0357 14.9808 26.0428 15.6487 25.9005C17.6158 25.4812 19.45 24.6183 21.0797 23.3455C22.1048 22.5448 23.439 21.0255 24.0978 19.9085C24.6761 18.9281 25.2472 17.6663 25.2472 17.3691C25.2472 17.2945 25.187 17.1775 25.1071 17.0971C24.9715 16.9604 24.9444 16.9549 24.2558 16.9229C23.4897 16.8873 23.1088 16.8316 22.6298 16.685C21.8831 16.4565 21.376 16.1827 20.8833 15.7418C20.5721 15.4633 20.4035 15.4387 20.1688 15.6378Z" fill="#464A58"/>
</svg>
